Coordinates
version=1
nRows=10
nColumns=40
inDegrees=yes
endheader
time	pelvis_tilt	pelvis_list	pelvis_rotation	pelvis_tx	pelvis_ty	pelvis_tz	hip_flexion_r	hip_adduction_r	hip_rotation_r	knee_angle_r	knee_angle_r_beta	ankle_angle_r	subtalar_angle_r	mtp_angle_r	hip_flexion_l	hip_adduction_l	hip_rotation_l	knee_angle_l	knee_angle_l_beta	ankle_angle_l	subtalar_angle_l	mtp_angle_l	lumbar_extension	lumbar_bending	lumbar_rotation	arm_flex_r	arm_add_r	arm_rot_r	elbow_flex_r	pro_sup_r	wrist_flex_r	wrist_dev_r	arm_flex_l	arm_add_l	arm_rot_l	elbow_flex_l	pro_sup_l	wrist_flex_l	wrist_dev_l
1760624924.38971496	      5.15011051	     -1.40156976	      0.45512506	      0.16366011	      0.87412617	      0.00106065	     80.00000000	     -7.00000000	      0.00000000	     80.00000000	      1.39626340	      0.00000000	      0.00000000	      0.00000000	     80.00000000	     -7.00000000	      0.00000000	     80.00000000	      1.39626340	      0.00000000	      0.00000000	      0.00000000	    -12.22074149	     -1.35335066	      3.15356743	      2.54937576	     -5.22017416	     17.04218896	      0.00000000	      0.00000000	    -10.13021851	    -16.92135336	      3.54306752	     -5.36484728	     15.72985716	      0.00000000	      9.46103949	     -1.63674281	     -7.66349053
1760624924.39971495	      5.15063290	     -1.40259500	      0.45505648	      0.16365774	      0.87411036	      0.00104460	     80.00000000	     -7.00000000	      0.00000000	     80.00000000	      1.39626340	      0.00000000	      0.00000000	      0.00000000	     80.00000000	     -7.00000000	      0.00000000	     80.00000000	      1.39626340	      0.00000000	      0.00000000	      0.00000000	    -12.22089457	     -1.35479968	      3.15326536	      2.54836838	     -5.22070786	     17.04219087	      0.00000000	      0.00000000	    -10.13011927	    -16.92132754	      3.54324396	     -5.36455869	     15.72978187	      0.00000000	      9.46095400	     -1.63661546	     -7.66353631
1760624924.40971494	      5.15639468	     -1.41186622	      0.45514716	      0.16369805	      0.87411472	      0.00105627	     80.00000000	     -7.00000000	      0.00000000	     80.00000000	      1.39626340	      0.00000000	      0.00000000	      0.00000000	     80.00000000	     -7.00000000	      0.00000000	     80.00000000	      1.39626340	      0.00000000	      0.00000000	      0.00000000	    -12.22135883	     -1.36999656	      3.14958030	      2.53772027	     -5.22774409	     17.04229088	      0.00000000	      0.00000000	    -10.12897124	    -16.92105617	      3.54721942	     -5.35790113	     15.72905147	      0.00000000	      9.46008980	     -1.63469835	     -7.66384903
1760624924.41971493	      5.15695658	     -1.41247822	      0.45509254	      0.16370908	      0.87408856	      0.00103344	     80.00000000	     -7.00000000	      0.00000000	     80.00000000	      1.39626340	      0.00000000	      0.00000000	      0.00000000	     80.00000000	     -7.00000000	      0.00000000	     80.00000000	      1.39626340	      0.00000000	      0.00000000	      0.00000000	    -12.22146542	     -1.37104170	      3.14940667	      2.53702554	     -5.22814925	     17.04230765	      0.00000000	      0.00000000	    -10.12885867	    -16.92102700	      3.54758312	     -5.35762823	     15.72900213	      0.00000000	      9.46002339	     -1.63453348	     -7.66388248
1760624924.42971492	      5.16497737	     -1.41678644	      0.45655725	      0.16375702	      0.87409019	      0.00100725	     80.00000000	     -7.00000000	      0.00000000	     80.00000000	      1.39626340	      0.00000000	      0.00000000	      0.00000000	     80.00000000	     -7.00000000	      0.00000000	     80.00000000	      1.39626340	      0.00000000	      0.00000000	      0.00000000	    -12.22178686	     -1.38423858	      3.14751134	      2.52583068	     -5.23814841	     17.04275722	      0.00000000	      0.00000000	    -10.12699021	    -16.92058267	      3.55213572	     -5.35220150	     15.72808996	      0.00000000	      9.45889633	     -1.63190690	     -7.66443988
1760624924.43971491	      5.16529086	     -1.41720014	      0.45652810	      0.16376122	      0.87410576	      0.00097067	     80.00000000	     -7.00000000	      0.00000000	     80.00000000	      1.39626340	      0.00000000	      0.00000000	      0.00000000	     80.00000000	     -7.00000000	      0.00000000	     80.00000000	      1.39626340	      0.00000000	      0.00000000	      0.00000000	    -12.22186316	     -1.38504705	      3.14749593	      2.52529837	     -5.23845870	     17.04278059	      0.00000000	      0.00000000	    -10.12686974	    -16.92054893	      3.55234812	     -5.35222825	     15.72804549	      0.00000000	      9.45883464	     -1.63174771	     -7.66447873
1760624924.44971490	      5.16575028	     -1.41866488	      0.45671162	      0.16376003	      0.87410506	      0.00094712	     80.00000000	     -7.00000000	      0.00000000	     80.00000000	      1.39626340	      0.00000000	      0.00000000	      0.00000000	     80.00000000	     -7.00000000	      0.00000000	     80.00000000	      1.39626340	      0.00000000	      0.00000000	      0.00000000	    -12.22192662	     -1.38696972	      3.14737628	      2.52470984	     -5.23903650	     17.04280897	      0.00000000	      0.00000000	    -10.12675235	    -16.92052261	      3.55249535	     -5.35149261	     15.72798988	      0.00000000	      9.45876473	     -1.63157731	     -7.66451699
1760624924.45971489	      5.17125320	     -1.42584683	      0.45971215	      0.16379655	      0.87414021	      0.00092869	     80.00000000	     -7.00000000	      0.00000000	     80.00000000	      1.39626340	      0.00000000	      0.00000000	      0.00000000	     80.00000000	     -7.00000000	      0.00000000	     80.00000000	      1.39626340	      0.00000000	      0.00000000	      0.00000000	    -12.22274040	     -1.40186130	      3.14680812	      2.51812936	     -5.24759728	     17.04334576	      0.00000000	      0.00000000	    -10.12512517	    -16.92013546	      3.55528521	     -5.34525998	     15.72736205	      0.00000000	      9.45792201	     -1.62931594	     -7.66518279
1760624924.46971512	      5.17150082	     -1.42627785	      0.45952413	      0.16381118	      0.87414742	      0.00086775	     80.00000000	     -7.00000000	      0.00000000	     80.00000000	      1.39626340	      0.00000000	      0.00000000	      0.00000000	     80.00000000	     -7.00000000	      0.00000000	     80.00000000	      1.39626340	      0.00000000	      0.00000000	      0.00000000	    -12.22285512	     -1.40256690	      3.14680822	      2.51782243	     -5.24754768	     17.04337675	      0.00000000	      0.00000000	    -10.12500277	    -16.92009967	      3.55569216	     -5.34557428	     15.72735331	      0.00000000	      9.45788117	     -1.62915394	     -7.66524966
1760624924.47971511	      5.17358901	     -1.42672171	      0.46079285	      0.16382957	      0.87419651	      0.00080733	     80.00000000	     -7.00000000	      0.00000000	     80.00000000	      1.39626340	      0.00000000	      0.00000000	      0.00000000	     80.00000000	     -7.00000000	      0.00000000	     80.00000000	      1.39626340	      0.00000000	      0.00000000	      0.00000000	    -12.22321391	     -1.40629667	      3.14738585	      2.51587194	     -5.25212532	     17.04376772	      0.00000000	      0.00000000	    -10.12428196	    -16.91997839	      3.55710954	     -5.34833948	     15.72717463	      0.00000000	      9.45754451	     -1.62837535	     -7.66575618
